# xmcd CD database file
#
# Track frame offsets:
#	150
#	31535
#	59775
#	81975
#	106987
#	126882
#	149824
#	170586
#	187236
#	217750
#	238038
#
# Disc length: 3512 seconds
#
# Revision: 0
# Processed by: cddbd v1.5.2PL0 Copyright (c) Steve Scherf et al.
# Submitted via: CDex 1.79
#
DISCID=a40db60b
DTITLE=Tokame - Eres la tierra mas linda
DYEAR=2014
DGENRE=Salsa
TTITLE0=ERES LA TIERRA MAS LINDA
TTITLE1=NO TE META CON MIGO
TTITLE2=DIME QUE TU QUIERES 
TTITLE3=EL PASEO
TTITLE4=EN LA CASA DE VICENTE
TTITLE5=MENTIROSO 
TTITLE6=PLEASE TELL ME 
TTITLE7=SE ACABO EL ABUSO
TTITLE8=ESA MUJER
TTITLE9=LOOK AT ME 
TTITLE10=DANZONETON 
EXTD=YEAR: 2014
EXTT0=
EXTT1=
EXTT2=
EXTT3=
EXTT4=
EXTT5=
EXTT6=
EXTT7=
EXTT8=
EXTT9=
EXTT10=
PLAYORDER=
